<svg width="35" height="61" viewBox="0 0 35 61" fill="none" xmlns="http://www.w3.org/2000/svg">
<path id="Logo" fill-rule="evenodd" clip-rule="evenodd" d="M10.9577 4.84893C7.62495 7.51583 4.41665 10.1559 3.82808 10.7156C1.14002 13.2723 0.0209582 15.6856 0.0403162 18.8843C0.0605282 22.2023 1.25318 24.6872 4.23047 27.6139C6.10122 29.4527 6.2215 29.4738 7.54951 28.197C8.06293 27.7033 8.46233 27.1972 8.46233 27.04C8.46233 26.8741 7.76814 26.0591 6.75171 25.0317C5.81085 24.0806 4.84964 23.014 4.61549 22.6612C3.24179 20.5906 3.14913 17.9497 4.36854 15.621C4.62788 15.1259 5.25502 14.3193 5.8248 13.7484C6.9171 12.6537 16.4975 5.14538 17.088 4.92105C17.5781 4.73505 17.6253 4.76555 21.4863 7.7651C28.5544 13.2562 29.7604 14.3709 30.6482 16.2324C31.1322 17.2475 31.165 17.403 31.1606 18.6706C31.1567 19.8001 31.0942 20.1729 30.7841 20.9194C29.9434 22.9423 29.7362 23.1786 22.7008 30.1349C11.9056 40.809 8.03531 44.6946 8.03531 44.8589C8.03531 45.1349 8.99709 45.1695 17.7983 45.2105C25.1089 45.2448 26.5323 45.2192 26.7361 45.0505C26.8694 44.9402 26.9597 44.7714 26.9368 44.6757C26.8657 44.3784 24.0108 41.9014 23.4864 41.682C23.1038 41.5219 22.2876 41.4743 19.9251 41.4743C18.2394 41.4743 16.8603 41.4201 16.8603 41.354C16.8603 41.2879 20.1144 38.0495 24.0916 34.1574C28.0688 30.2655 31.6129 26.7441 31.9673 26.332C34.1551 23.7889 34.9984 21.7572 35 19.0269C35.0021 15.2052 33.48 12.5914 29.2047 9.07489C24.996 5.61343 17.6659 0 17.3543 0C17.125 0 15.0793 1.55065 10.9577 4.84893ZM8.03531 16.1128C8.03531 16.3357 10.7487 19.0953 11.1952 19.3266C11.4903 19.4794 12.3094 19.5257 14.7181 19.5257C17.1314 19.5257 17.8578 19.5669 17.8616 19.7039C17.8643 19.8019 14.509 23.2171 10.4054 27.2932C6.30177 31.3694 2.67614 35.0764 2.34862 35.5311C1.52576 36.673 0.71685 38.2218 0.323855 39.4077C0.046295 40.2452 -0.00565883 40.6914 0.000461708 42.1869C0.00672459 43.7517 0.0555479 44.1071 0.401287 45.1086C1.21902 47.4771 2.67913 49.4955 4.88494 51.3068C5.63905 51.9261 8.67683 54.3603 11.6356 56.7163C15.7566 59.9979 17.107 61 17.408 61C17.7863 61 20.7774 58.7249 28.2473 52.7556C33.2571 48.7523 34.7296 46.5762 34.9019 42.9219C35.0817 39.1076 34.0569 36.7229 30.8651 33.5286C28.6655 31.3273 28.6032 31.3144 27.2031 32.7666C26.6815 33.3076 26.2546 33.8614 26.2546 33.9971C26.2546 34.1329 26.8218 34.8286 27.5151 35.5432C29.756 37.8526 30.6222 39.1167 31.0427 40.6904C31.6865 43.1002 30.3763 46.2018 27.8677 48.2058C22.4046 52.5703 17.684 56.1542 17.3985 56.1542C16.9704 56.1542 17.1939 56.3158 11.3803 51.8017C8.62587 49.6628 6.005 47.5113 5.51863 46.9894C3.23766 44.5425 2.84509 41.2815 4.50006 38.5303C4.84466 37.9574 7.84557 34.9469 15.4369 27.5579C21.1909 21.9573 26.1793 17.0572 26.5222 16.6688L27.1455 15.9626H17.5905C10.9881 15.9626 8.03531 16.0091 8.03531 16.1128Z" fill="#DCA45C"/>
</svg>
